<svg id="Layer_1" data-name="Layer 1" xmlns="http://www.w3.org/2000/svg" viewBox="0 0 473.69 466.27"><defs><style>.cls-1{fill:#f26f72;}.cls-2{fill:#ed1c24;}</style></defs><path class="cls-1" d="M62.57,646.72V531.15h34a60.57,60.57,0,0,1,16.93,2.09,31.81,31.81,0,0,1,11.69,6,23.47,23.47,0,0,1,6.78,9.48,34.44,34.44,0,0,1,2.19,12.62,27.57,27.57,0,0,1-1.23,8.23,24.8,24.8,0,0,1-3.72,7.34,27.31,27.31,0,0,1-6.25,6,33.91,33.91,0,0,1-8.82,4.35q11.68,2.51,17.64,9.12t6,17.42a34.9,34.9,0,0,1-2.5,13.39,28.51,28.51,0,0,1-7.29,10.4,33.5,33.5,0,0,1-11.77,6.74,49.21,49.21,0,0,1-15.89,2.37ZM77,582.93H96.08a34.62,34.62,0,0,0,10.57-1.45,20.91,20.91,0,0,0,7.4-4,15.67,15.67,0,0,0,4.36-6.25,22.16,22.16,0,0,0,1.41-8q0-10.17-5.65-14.92T96.6,543.49H77Zm0,11.13V634.3H100.1a32.59,32.59,0,0,0,10.6-1.53,19.39,19.39,0,0,0,7.3-4.31,16.94,16.94,0,0,0,4.21-6.62,25.44,25.44,0,0,0,1.34-8.43q0-8.94-5.85-14.15T100,594.06Z" transform="translate(-62.57 -190.11)"/><path class="cls-1" d="M168.29,565v52.1q0,9.28,3.94,14.36t11.91,5.08a21.44,21.44,0,0,0,11-3,34.78,34.78,0,0,0,9.45-8.31V565h13.25v81.7H209.9a3.44,3.44,0,0,1-3.57-3l-1-8.79a42.54,42.54,0,0,1-11,9.48,27.14,27.14,0,0,1-14,3.59,25.35,25.35,0,0,1-10.9-2.22,21.7,21.7,0,0,1-7.93-6.25,27.1,27.1,0,0,1-4.8-9.76,46.89,46.89,0,0,1-1.6-12.67V565Z" transform="translate(-62.57 -190.11)"/><path class="cls-1" d="M254.35,527.92v118.8H241.1V527.92Z" transform="translate(-62.57 -190.11)"/><path class="cls-1" d="M307.58,563.73a31.36,31.36,0,0,1,12.5,2.46,27.88,27.88,0,0,1,9.9,7.1,33,33,0,0,1,6.52,11.45,47.73,47.73,0,0,1,2.34,15.53c0,2.26-.22,3.76-.67,4.51a2.67,2.67,0,0,1-2.53,1.13H285.47a48.62,48.62,0,0,0,1.93,13.47,28.08,28.08,0,0,0,4.92,9.56,19.85,19.85,0,0,0,7.44,5.73,23.88,23.88,0,0,0,9.68,1.89,26.23,26.23,0,0,0,8.6-1.25,39,39,0,0,0,6.21-2.7,48.13,48.13,0,0,0,4.36-2.7,5.52,5.52,0,0,1,3-1.25,2.85,2.85,0,0,1,2.53,1.37l3.73,5.24a26,26,0,0,1-5.89,5.61,35.55,35.55,0,0,1-7.33,3.91,43.68,43.68,0,0,1-8.08,2.3,45.66,45.66,0,0,1-8.26.76,35.7,35.7,0,0,1-14.4-2.86,31.62,31.62,0,0,1-11.4-8.39A39.29,39.29,0,0,1,275,622.93a60,60,0,0,1-2.68-18.71,51.32,51.32,0,0,1,2.42-16,38.38,38.38,0,0,1,7-12.86,32.25,32.25,0,0,1,11.1-8.55A34,34,0,0,1,307.58,563.73Zm.29,10.57q-9.6,0-15.11,6T285.91,597h41a31.43,31.43,0,0,0-1.26-9.15,20.94,20.94,0,0,0-3.73-7.18,16.62,16.62,0,0,0-6-4.68A18.91,18.91,0,0,0,307.87,574.3Z" transform="translate(-62.57 -190.11)"/><path class="cls-1" d="M378.6,648q-8.94,0-13.74-5.41T360.06,627V577H351a2.82,2.82,0,0,1-2-.77,3.09,3.09,0,0,1-.82-2.38v-5.72l12.36-1.7,3.05-25.24a3.12,3.12,0,0,1,1-2,2.91,2.91,0,0,1,2.08-.76h6.7v28.14L426,565l-3.8,10.8L373.31,577v49q0,5.16,2.31,7.66a7.72,7.72,0,0,0,5.95,2.5,9.61,9.61,0,0,0,3.61-.61,14.54,14.54,0,0,0,2.65-1.33c.74-.48,1.37-.92,1.9-1.33a2.36,2.36,0,0,1,1.37-.6,2.27,2.27,0,0,1,1.86,1.37l3.88,6.86a24.55,24.55,0,0,1-8.27,5.44A26.11,26.11,0,0,1,378.6,648Z" transform="translate(-62.57 -190.11)"/><path class="cls-1" d="M429,539.37a9.59,9.59,0,0,1-.79,3.91,11.25,11.25,0,0,1-2.08,3.23,9.8,9.8,0,0,1-3,2.22,8.4,8.4,0,0,1-3.65.81,8.12,8.12,0,0,1-3.6-.81,9.76,9.76,0,0,1-3-2.22,10.76,10.76,0,0,1-2.05-3.23,10.09,10.09,0,0,1-.75-3.91,10.85,10.85,0,0,1,2.8-7.3,9.57,9.57,0,0,1,3-2.21,8.12,8.12,0,0,1,3.6-.81,8.4,8.4,0,0,1,3.65.81,9.61,9.61,0,0,1,3,2.21,11.13,11.13,0,0,1,2.08,3.31A10.22,10.22,0,0,1,429,539.37ZM426,565v81.7H412.77l-.61-81.25Z" transform="translate(-62.57 -190.11)"/><path class="cls-1" d="M281.14,382l68.39-45.12-68.39-45.12Z" transform="translate(-62.57 -190.11)"/><path class="cls-1" d="M305.6,190.11A146.77,146.77,0,1,0,452.37,336.87,146.76,146.76,0,0,0,305.6,190.11ZM364,342l-85.62,56.48a6,6,0,0,1-6.26.27,6.07,6.07,0,0,1-3.22-5.37v-113a6.12,6.12,0,0,1,9.48-5.09L364,331.78a6.09,6.09,0,0,1,0,10.2Z" transform="translate(-62.57 -190.11)"/><path class="cls-1" d="M498.89,633.94c.1-2,4.48-12.18,13.26-16.06V594.7A46,46,0,0,0,510.51,582a28.58,28.58,0,0,0-4.8-9.8,21.38,21.38,0,0,0-7.89-6.29,25.4,25.4,0,0,0-10.91-2.22,26.81,26.81,0,0,0-14,3.63,43.08,43.08,0,0,0-11,9.52l-1-8.87a3.45,3.45,0,0,0-3.58-3h-7.89v81.7h13.25V586.56a36.78,36.78,0,0,1,9.42-8.31,21,21,0,0,1,11-3.07q8,0,11.95,5.13t3.91,14.39Z" transform="translate(-62.57 -190.11)"/><path class="cls-1" d="M507.57,641.51a15.58,15.58,0,0,1,1.1-5.83,15,15,0,0,1,3-4.76,13.89,13.89,0,0,1,4.55-3.21,14,14,0,0,1,11.29,0,14.69,14.69,0,0,1,4.61,3.21,14.5,14.5,0,0,1,3,4.76,16.16,16.16,0,0,1,0,11.72,14.66,14.66,0,0,1-3,4.7,13.91,13.91,0,0,1-4.61,3.15,14.67,14.67,0,0,1-11.29,0,13.17,13.17,0,0,1-4.55-3.15,15.22,15.22,0,0,1-3-4.7A15.44,15.44,0,0,1,507.57,641.51Z" transform="translate(-62.57 -190.11)"/><path class="cls-2" d="M498.9,645.42h0v0A.43.43,0,0,0,498.9,645.42Z" transform="translate(-62.57 -190.11)"/></svg>