<svg width="800" height="600" viewBox="0 0 800 600" fill="none" xmlns="http://www.w3.org/2000/svg">
<path d="M0 0H800V600H0V0Z" fill="#F1F5F7"/>
<path d="M344 251H456V350H344V251Z" fill="white"/>
<path d="M455.667 253.583C455.667 248.655 453.709 243.928 450.224 240.443C446.739 236.958 442.012 235 437.083 235H325.583C320.655 235 315.928 236.958 312.443 240.443C308.958 243.928 307 248.655 307 253.583V346.5C307 351.429 308.958 356.155 312.443 359.64C315.928 363.125 320.655 365.083 325.583 365.083H437.083C442.012 365.083 446.739 363.125 450.224 359.64C453.709 356.155 455.667 351.429 455.667 346.5V315.531L492.833 346.5V253.583L455.667 284.552V253.583ZM418.5 309.333H390.625V337.208H372.042V309.333H344.167V290.75H372.042V262.875H390.625V290.75H418.5V309.333Z" fill="#D1DBEA"/>
</svg>
