<svg width="800" height="600" viewBox="0 0 800 600" fill="none" xmlns="http://www.w3.org/2000/svg">
<path d="M0 0H800V600H0V0Z" fill="#F1F5F7"/>
<path d="M400.109 261.359C417.022 261.359 430.859 275.197 430.859 292.109C430.859 309.022 417.022 322.859 400.109 322.859C383.197 322.859 369.359 309.022 369.359 292.109C369.359 275.197 383.197 261.359 400.109 261.359ZM400.109 256.234C380.378 256.234 364.234 272.378 364.234 292.109C364.234 311.84 380.378 327.984 400.109 327.984C419.84 327.984 435.984 311.84 435.984 292.109C435.984 272.378 419.84 256.234 400.109 256.234Z" fill="#958D8D"/>
<path d="M420.936 289.874H402.999V271.936H397.874V289.874H379.936V294.999H397.874V312.936H402.999V294.999H420.936V289.874Z" fill="#958D8D"/>
<path d="M212.969 363.448C209.364 363.448 206.612 362.445 204.713 360.44C202.836 358.435 201.897 355.587 201.897 351.896C201.897 350.061 202.185 348.429 202.761 347C203.337 345.549 204.126 344.333 205.129 343.352C206.132 342.349 207.326 341.592 208.713 341.08C210.1 340.568 211.604 340.312 213.225 340.312C214.164 340.312 215.017 340.387 215.785 340.536C216.553 340.664 217.225 340.824 217.801 341.016C218.377 341.187 218.857 341.368 219.241 341.56C219.625 341.752 219.902 341.901 220.073 342.008L218.633 346.04C217.95 345.677 217.15 345.368 216.233 345.112C215.337 344.856 214.313 344.728 213.161 344.728C212.393 344.728 211.636 344.856 210.889 345.112C210.164 345.368 209.513 345.784 208.937 346.36C208.382 346.915 207.934 347.64 207.593 348.536C207.252 349.432 207.081 350.52 207.081 351.8C207.081 352.824 207.188 353.784 207.401 354.68C207.636 355.555 207.998 356.312 208.489 356.952C209.001 357.592 209.662 358.104 210.473 358.488C211.284 358.851 212.265 359.032 213.417 359.032C214.142 359.032 214.793 358.989 215.369 358.904C215.945 358.819 216.457 358.723 216.905 358.616C217.353 358.488 217.748 358.349 218.089 358.2C218.43 358.051 218.74 357.912 219.017 357.784L220.393 361.784C219.689 362.211 218.697 362.595 217.417 362.936C216.137 363.277 214.654 363.448 212.969 363.448Z" fill="#958D8D"/>
<path d="M230.007 363.32C228.62 363.299 227.49 363.149 226.615 362.872C225.762 362.595 225.079 362.211 224.567 361.72C224.076 361.208 223.735 360.6 223.543 359.896C223.372 359.171 223.287 358.36 223.287 357.464V338.936L228.055 338.168V356.504C228.055 356.931 228.087 357.315 228.151 357.656C228.215 357.997 228.332 358.285 228.503 358.52C228.695 358.755 228.962 358.947 229.303 359.096C229.644 359.245 230.103 359.341 230.679 359.384L230.007 363.32Z" fill="#958D8D"/>
<path d="M238.18 363H233.412V346.168H238.18V363ZM238.628 341.304C238.628 342.179 238.34 342.872 237.764 343.384C237.209 343.875 236.548 344.12 235.78 344.12C235.012 344.12 234.34 343.875 233.764 343.384C233.209 342.872 232.932 342.179 232.932 341.304C232.932 340.429 233.209 339.747 233.764 339.256C234.34 338.744 235.012 338.488 235.78 338.488C236.548 338.488 237.209 338.744 237.764 339.256C238.34 339.747 238.628 340.429 238.628 341.304Z" fill="#958D8D"/>
<path d="M241.862 354.584C241.862 353.368 242.054 352.227 242.438 351.16C242.843 350.072 243.419 349.133 244.166 348.344C244.913 347.533 245.819 346.893 246.886 346.424C247.953 345.955 249.169 345.72 250.534 345.72C251.43 345.72 252.251 345.805 252.998 345.976C253.745 346.125 254.47 346.349 255.174 346.648L254.182 350.456C253.734 350.285 253.243 350.136 252.71 350.008C252.177 349.88 251.579 349.816 250.918 349.816C249.51 349.816 248.454 350.253 247.75 351.128C247.067 352.003 246.726 353.155 246.726 354.584C246.726 356.099 247.046 357.272 247.686 358.104C248.347 358.936 249.489 359.352 251.11 359.352C251.686 359.352 252.305 359.299 252.966 359.192C253.627 359.085 254.235 358.915 254.79 358.68L255.462 362.584C254.907 362.819 254.214 363.021 253.382 363.192C252.55 363.363 251.633 363.448 250.63 363.448C249.094 363.448 247.771 363.224 246.662 362.776C245.553 362.307 244.635 361.677 243.91 360.888C243.206 360.099 242.683 359.171 242.342 358.104C242.022 357.016 241.862 355.843 241.862 354.584Z" fill="#958D8D"/>
<path d="M263.43 352.248C263.899 351.736 264.379 351.203 264.87 350.648C265.382 350.093 265.873 349.549 266.342 349.016C266.811 348.461 267.249 347.939 267.654 347.448C268.081 346.957 268.443 346.531 268.742 346.168H274.406C273.275 347.469 272.166 348.717 271.078 349.912C270.011 351.085 268.838 352.301 267.558 353.56C268.198 354.136 268.859 354.829 269.542 355.64C270.225 356.429 270.886 357.251 271.526 358.104C272.166 358.957 272.753 359.811 273.286 360.664C273.819 361.517 274.267 362.296 274.63 363H269.158C268.817 362.445 268.422 361.837 267.974 361.176C267.547 360.493 267.089 359.821 266.598 359.16C266.107 358.477 265.585 357.827 265.03 357.208C264.497 356.589 263.963 356.067 263.43 355.64V363H258.662V338.936L263.43 338.168V352.248Z" fill="#958D8D"/>
<path d="M284.721 341.976L289.489 341.208V346.168H295.217V350.136H289.489V356.056C289.489 357.059 289.659 357.859 290.001 358.456C290.363 359.053 291.078 359.352 292.145 359.352C292.657 359.352 293.179 359.309 293.713 359.224C294.267 359.117 294.769 358.979 295.217 358.808L295.889 362.52C295.313 362.755 294.673 362.957 293.969 363.128C293.265 363.299 292.401 363.384 291.377 363.384C290.075 363.384 288.998 363.213 288.145 362.872C287.291 362.509 286.609 362.019 286.097 361.4C285.585 360.76 285.222 359.992 285.009 359.096C284.817 358.2 284.721 357.208 284.721 356.12V341.976Z" fill="#958D8D"/>
<path d="M314.218 354.552C314.218 355.875 314.026 357.091 313.642 358.2C313.258 359.288 312.704 360.227 311.978 361.016C311.253 361.784 310.378 362.381 309.354 362.808C308.352 363.235 307.221 363.448 305.962 363.448C304.725 363.448 303.594 363.235 302.57 362.808C301.568 362.381 300.704 361.784 299.978 361.016C299.253 360.227 298.688 359.288 298.282 358.2C297.877 357.091 297.674 355.875 297.674 354.552C297.674 353.229 297.877 352.024 298.282 350.936C298.709 349.848 299.285 348.92 300.01 348.152C300.757 347.384 301.632 346.787 302.634 346.36C303.658 345.933 304.768 345.72 305.962 345.72C307.178 345.72 308.288 345.933 309.29 346.36C310.314 346.787 311.189 347.384 311.914 348.152C312.64 348.92 313.205 349.848 313.61 350.936C314.016 352.024 314.218 353.229 314.218 354.552ZM309.354 354.552C309.354 353.08 309.056 351.928 308.458 351.096C307.882 350.243 307.05 349.816 305.962 349.816C304.874 349.816 304.032 350.243 303.434 351.096C302.837 351.928 302.538 353.08 302.538 354.552C302.538 356.024 302.837 357.197 303.434 358.072C304.032 358.925 304.874 359.352 305.962 359.352C307.05 359.352 307.882 358.925 308.458 358.072C309.056 357.197 309.354 356.024 309.354 354.552Z" fill="#958D8D"/>
<path d="M334.591 363.448C333.034 363.448 331.69 363.235 330.559 362.808C329.429 362.36 328.49 361.752 327.743 360.984C327.018 360.195 326.474 359.267 326.111 358.2C325.77 357.112 325.599 355.917 325.599 354.616V340.824H330.591V354.2C330.591 355.096 330.687 355.864 330.879 356.504C331.093 357.123 331.37 357.635 331.711 358.04C332.074 358.424 332.501 358.701 332.991 358.872C333.503 359.043 334.058 359.128 334.655 359.128C335.871 359.128 336.853 358.755 337.599 358.008C338.367 357.261 338.751 355.992 338.751 354.2V340.824H343.743V354.616C343.743 355.917 343.562 357.112 343.199 358.2C342.837 359.288 342.282 360.227 341.535 361.016C340.789 361.784 339.839 362.381 338.687 362.808C337.535 363.235 336.17 363.448 334.591 363.448Z" fill="#958D8D"/>
<path d="M359.008 354.712C359.008 353.24 358.678 352.067 358.016 351.192C357.355 350.296 356.374 349.848 355.072 349.848C354.646 349.848 354.251 349.869 353.888 349.912C353.526 349.933 353.227 349.965 352.992 350.008V358.616C353.291 358.808 353.675 358.968 354.144 359.096C354.635 359.224 355.126 359.288 355.616 359.288C357.878 359.288 359.008 357.763 359.008 354.712ZM363.872 354.584C363.872 355.885 363.712 357.069 363.392 358.136C363.072 359.203 362.603 360.12 361.984 360.888C361.366 361.656 360.598 362.253 359.68 362.68C358.763 363.107 357.707 363.32 356.512 363.32C355.851 363.32 355.232 363.256 354.656 363.128C354.08 363 353.526 362.819 352.992 362.584V368.92H348.224V346.744C348.651 346.616 349.142 346.499 349.696 346.392C350.251 346.264 350.827 346.157 351.424 346.072C352.043 345.987 352.662 345.923 353.28 345.88C353.92 345.816 354.528 345.784 355.104 345.784C356.491 345.784 357.728 345.997 358.816 346.424C359.904 346.829 360.822 347.416 361.568 348.184C362.315 348.931 362.88 349.848 363.264 350.936C363.67 352.024 363.872 353.24 363.872 354.584Z" fill="#958D8D"/>
<path d="M374.257 363.32C372.87 363.299 371.74 363.149 370.865 362.872C370.012 362.595 369.329 362.211 368.817 361.72C368.326 361.208 367.985 360.6 367.793 359.896C367.622 359.171 367.537 358.36 367.537 357.464V338.936L372.305 338.168V356.504C372.305 356.931 372.337 357.315 372.401 357.656C372.465 357.997 372.582 358.285 372.753 358.52C372.945 358.755 373.212 358.947 373.553 359.096C373.894 359.245 374.353 359.341 374.929 359.384L374.257 363.32Z" fill="#958D8D"/>
<path d="M393.406 354.552C393.406 355.875 393.214 357.091 392.83 358.2C392.446 359.288 391.891 360.227 391.166 361.016C390.441 361.784 389.566 362.381 388.542 362.808C387.539 363.235 386.409 363.448 385.15 363.448C383.913 363.448 382.782 363.235 381.758 362.808C380.755 362.381 379.891 361.784 379.166 361.016C378.441 360.227 377.875 359.288 377.47 358.2C377.065 357.091 376.862 355.875 376.862 354.552C376.862 353.229 377.065 352.024 377.47 350.936C377.897 349.848 378.473 348.92 379.198 348.152C379.945 347.384 380.819 346.787 381.822 346.36C382.846 345.933 383.955 345.72 385.15 345.72C386.366 345.72 387.475 345.933 388.478 346.36C389.502 346.787 390.377 347.384 391.102 348.152C391.827 348.92 392.393 349.848 392.798 350.936C393.203 352.024 393.406 353.229 393.406 354.552ZM388.542 354.552C388.542 353.08 388.243 351.928 387.646 351.096C387.07 350.243 386.238 349.816 385.15 349.816C384.062 349.816 383.219 350.243 382.622 351.096C382.025 351.928 381.726 353.08 381.726 354.552C381.726 356.024 382.025 357.197 382.622 358.072C383.219 358.925 384.062 359.352 385.15 359.352C386.238 359.352 387.07 358.925 387.646 358.072C388.243 357.197 388.542 356.024 388.542 354.552Z" fill="#958D8D"/>
<path d="M403.531 359.672C404.001 359.672 404.449 359.661 404.875 359.64C405.302 359.619 405.643 359.587 405.899 359.544V355.928C405.707 355.885 405.419 355.843 405.035 355.8C404.651 355.757 404.299 355.736 403.979 355.736C403.531 355.736 403.105 355.768 402.699 355.832C402.315 355.875 401.974 355.971 401.675 356.12C401.377 356.269 401.142 356.472 400.971 356.728C400.801 356.984 400.715 357.304 400.715 357.688C400.715 358.435 400.961 358.957 401.451 359.256C401.963 359.533 402.657 359.672 403.531 359.672ZM403.147 345.72C404.555 345.72 405.729 345.88 406.667 346.2C407.606 346.52 408.353 346.979 408.907 347.576C409.483 348.173 409.889 348.899 410.123 349.752C410.358 350.605 410.475 351.555 410.475 352.6V362.52C409.793 362.669 408.843 362.84 407.627 363.032C406.411 363.245 404.939 363.352 403.211 363.352C402.123 363.352 401.131 363.256 400.235 363.064C399.361 362.872 398.603 362.563 397.963 362.136C397.323 361.688 396.833 361.112 396.491 360.408C396.15 359.704 395.979 358.84 395.979 357.816C395.979 356.835 396.171 356.003 396.555 355.32C396.961 354.637 397.494 354.093 398.155 353.688C398.817 353.283 399.574 352.995 400.427 352.824C401.281 352.632 402.166 352.536 403.083 352.536C403.702 352.536 404.246 352.568 404.715 352.632C405.206 352.675 405.601 352.739 405.899 352.824V352.376C405.899 351.565 405.654 350.915 405.163 350.424C404.673 349.933 403.819 349.688 402.603 349.688C401.793 349.688 400.993 349.752 400.203 349.88C399.414 349.987 398.731 350.147 398.155 350.36L397.547 346.52C397.825 346.435 398.166 346.349 398.571 346.264C398.998 346.157 399.457 346.072 399.947 346.008C400.438 345.923 400.95 345.859 401.483 345.816C402.038 345.752 402.593 345.72 403.147 345.72Z" fill="#958D8D"/>
<path d="M418.851 354.456C418.851 355.928 419.182 357.112 419.843 358.008C420.504 358.904 421.486 359.352 422.787 359.352C423.214 359.352 423.608 359.341 423.971 359.32C424.334 359.277 424.632 359.235 424.867 359.192V350.52C424.568 350.328 424.174 350.168 423.683 350.04C423.214 349.912 422.734 349.848 422.243 349.848C419.982 349.848 418.851 351.384 418.851 354.456ZM429.635 362.456C429.208 362.584 428.718 362.712 428.163 362.84C427.608 362.947 427.022 363.043 426.403 363.128C425.806 363.213 425.187 363.277 424.547 363.32C423.928 363.384 423.331 363.416 422.755 363.416C421.368 363.416 420.131 363.213 419.043 362.808C417.955 362.403 417.038 361.827 416.291 361.08C415.544 360.312 414.968 359.395 414.563 358.328C414.179 357.24 413.987 356.024 413.987 354.68C413.987 353.315 414.158 352.088 414.499 351C414.84 349.891 415.331 348.952 415.971 348.184C416.611 347.416 417.39 346.829 418.307 346.424C419.246 346.019 420.312 345.816 421.507 345.816C422.168 345.816 422.755 345.88 423.267 346.008C423.8 346.136 424.334 346.317 424.867 346.552V338.936L429.635 338.168V362.456Z" fill="#958D8D"/>
<path d="M458.555 340.824V345.08H451.867V363H446.875V345.08H440.187V340.824H458.555Z" fill="#958D8D"/>
<path d="M461.443 363V338.936L466.211 338.168V346.232C466.531 346.125 466.936 346.029 467.427 345.944C467.939 345.837 468.43 345.784 468.899 345.784C470.264 345.784 471.395 345.976 472.291 346.36C473.208 346.723 473.934 347.245 474.467 347.928C475.022 348.611 475.406 349.421 475.619 350.36C475.854 351.299 475.971 352.344 475.971 353.496V363H471.203V354.072C471.203 352.536 471 351.448 470.595 350.808C470.211 350.168 469.486 349.848 468.419 349.848C467.992 349.848 467.587 349.891 467.203 349.976C466.84 350.04 466.51 350.115 466.211 350.2V363H461.443Z" fill="#958D8D"/>
<path d="M494.655 362.424C493.844 362.659 492.799 362.872 491.519 363.064C490.239 363.277 488.895 363.384 487.487 363.384C486.058 363.384 484.863 363.192 483.903 362.808C482.964 362.424 482.218 361.891 481.663 361.208C481.108 360.504 480.714 359.672 480.479 358.712C480.244 357.752 480.127 356.696 480.127 355.544V346.168H484.895V354.968C484.895 356.504 485.098 357.613 485.503 358.296C485.908 358.979 486.666 359.32 487.775 359.32C488.116 359.32 488.479 359.309 488.863 359.288C489.247 359.245 489.588 359.203 489.887 359.16V346.168H494.655V362.424Z" fill="#958D8D"/>
<path d="M508.379 354.072C508.379 352.536 508.176 351.448 507.771 350.808C507.387 350.168 506.715 349.848 505.755 349.848C505.456 349.848 505.147 349.869 504.827 349.912C504.507 349.933 504.197 349.965 503.899 350.008V363H499.131V346.744C499.536 346.637 500.005 346.531 500.539 346.424C501.093 346.296 501.669 346.189 502.267 346.104C502.885 345.997 503.515 345.923 504.155 345.88C504.795 345.816 505.424 345.784 506.043 345.784C507.259 345.784 508.24 345.944 508.987 346.264C509.755 346.563 510.384 346.925 510.875 347.352C511.557 346.861 512.336 346.477 513.211 346.2C514.107 345.923 514.928 345.784 515.675 345.784C517.019 345.784 518.117 345.976 518.971 346.36C519.845 346.723 520.539 347.245 521.051 347.928C521.563 348.611 521.915 349.421 522.107 350.36C522.299 351.299 522.395 352.344 522.395 353.496V363H517.627V354.072C517.627 352.536 517.424 351.448 517.019 350.808C516.635 350.168 515.963 349.848 515.003 349.848C514.747 349.848 514.384 349.912 513.915 350.04C513.467 350.168 513.093 350.328 512.795 350.52C512.944 351.011 513.04 351.533 513.083 352.088C513.125 352.621 513.147 353.197 513.147 353.816V363H508.379V354.072Z" fill="#958D8D"/>
<path d="M537.508 354.456C537.508 351.384 536.378 349.848 534.116 349.848C533.626 349.848 533.135 349.912 532.644 350.04C532.175 350.168 531.791 350.328 531.492 350.52V359.192C531.727 359.235 532.026 359.277 532.388 359.32C532.751 359.341 533.146 359.352 533.572 359.352C534.874 359.352 535.855 358.904 536.516 358.008C537.178 357.112 537.508 355.928 537.508 354.456ZM542.372 354.584C542.372 355.928 542.17 357.144 541.764 358.232C541.38 359.32 540.815 360.248 540.068 361.016C539.322 361.784 538.404 362.381 537.316 362.808C536.228 363.213 534.991 363.416 533.604 363.416C533.028 363.416 532.42 363.384 531.78 363.32C531.162 363.277 530.543 363.213 529.924 363.128C529.327 363.043 528.751 362.947 528.196 362.84C527.642 362.712 527.151 362.584 526.724 362.456V338.936L531.492 338.168V346.552C532.026 346.317 532.58 346.136 533.156 346.008C533.732 345.88 534.351 345.816 535.012 345.816C536.207 345.816 537.263 346.029 538.18 346.456C539.098 346.861 539.866 347.448 540.484 348.216C541.103 348.984 541.572 349.912 541.892 351C542.212 352.067 542.372 353.261 542.372 354.584Z" fill="#958D8D"/>
<path d="M546.037 346.744C546.848 346.509 547.893 346.296 549.173 346.104C550.453 345.891 551.797 345.784 553.205 345.784C554.634 345.784 555.818 345.976 556.757 346.36C557.717 346.723 558.474 347.245 559.029 347.928C559.584 348.611 559.978 349.421 560.213 350.36C560.448 351.299 560.565 352.344 560.565 353.496V363H555.797V354.072C555.797 352.536 555.594 351.448 555.189 350.808C554.784 350.168 554.026 349.848 552.917 349.848C552.576 349.848 552.213 349.869 551.829 349.912C551.445 349.933 551.104 349.965 550.805 350.008V363H546.037V346.744Z" fill="#958D8D"/>
<path d="M571.313 359.672C571.782 359.672 572.23 359.661 572.657 359.64C573.083 359.619 573.425 359.587 573.681 359.544V355.928C573.489 355.885 573.201 355.843 572.817 355.8C572.433 355.757 572.081 355.736 571.761 355.736C571.313 355.736 570.886 355.768 570.481 355.832C570.097 355.875 569.755 355.971 569.457 356.12C569.158 356.269 568.923 356.472 568.753 356.728C568.582 356.984 568.497 357.304 568.497 357.688C568.497 358.435 568.742 358.957 569.233 359.256C569.745 359.533 570.438 359.672 571.313 359.672ZM570.929 345.72C572.337 345.72 573.51 345.88 574.449 346.2C575.387 346.52 576.134 346.979 576.689 347.576C577.265 348.173 577.67 348.899 577.905 349.752C578.139 350.605 578.257 351.555 578.257 352.6V362.52C577.574 362.669 576.625 362.84 575.409 363.032C574.193 363.245 572.721 363.352 570.993 363.352C569.905 363.352 568.913 363.256 568.017 363.064C567.142 362.872 566.385 362.563 565.745 362.136C565.105 361.688 564.614 361.112 564.273 360.408C563.931 359.704 563.761 358.84 563.761 357.816C563.761 356.835 563.953 356.003 564.337 355.32C564.742 354.637 565.275 354.093 565.937 353.688C566.598 353.283 567.355 352.995 568.209 352.824C569.062 352.632 569.947 352.536 570.865 352.536C571.483 352.536 572.027 352.568 572.497 352.632C572.987 352.675 573.382 352.739 573.681 352.824V352.376C573.681 351.565 573.435 350.915 572.945 350.424C572.454 349.933 571.601 349.688 570.385 349.688C569.574 349.688 568.774 349.752 567.985 349.88C567.195 349.987 566.513 350.147 565.937 350.36L565.329 346.52C565.606 346.435 565.947 346.349 566.353 346.264C566.779 346.157 567.238 346.072 567.729 346.008C568.219 345.923 568.731 345.859 569.265 345.816C569.819 345.752 570.374 345.72 570.929 345.72Z" fill="#958D8D"/>
<path d="M587.336 363H582.568V346.168H587.336V363ZM587.784 341.304C587.784 342.179 587.496 342.872 586.92 343.384C586.365 343.875 585.704 344.12 584.936 344.12C584.168 344.12 583.496 343.875 582.92 343.384C582.365 342.872 582.088 342.179 582.088 341.304C582.088 340.429 582.365 339.747 582.92 339.256C583.496 338.744 584.168 338.488 584.936 338.488C585.704 338.488 586.365 338.744 586.92 339.256C587.496 339.747 587.784 340.429 587.784 341.304Z" fill="#958D8D"/>
<path d="M598.538 363.32C597.151 363.299 596.021 363.149 595.146 362.872C594.293 362.595 593.61 362.211 593.098 361.72C592.607 361.208 592.266 360.6 592.074 359.896C591.903 359.171 591.818 358.36 591.818 357.464V338.936L596.586 338.168V356.504C596.586 356.931 596.618 357.315 596.682 357.656C596.746 357.997 596.863 358.285 597.034 358.52C597.226 358.755 597.493 358.947 597.834 359.096C598.175 359.245 598.634 359.341 599.21 359.384L598.538 363.32Z" fill="#958D8D"/>
</svg>
